<svg id="Layer_1" data-name="Layer 1" xmlns="http://www.w3.org/2000/svg" xmlns:xlink="http://www.w3.org/1999/xlink" viewBox="0 0 674.36 194.94"><defs><style>.cls-1{fill:#808285;}.cls-2{fill:#63c29d;}.cls-3{fill:#9d85be;}.cls-4{fill:url(#linear-gradient);}.cls-5{fill:url(#linear-gradient-2);}</style><linearGradient id="linear-gradient" x1="500.44" y1="884.44" x2="697.16" y2="884.44" gradientUnits="userSpaceOnUse"><stop offset="0" stop-color="#63c29d"/><stop offset="0.15" stop-color="#60c3ad"/><stop offset="0.28" stop-color="#74cee2"/><stop offset="0.42" stop-color="#44c8f5"/><stop offset="0.56" stop-color="#53b7e8"/><stop offset="0.7" stop-color="#7bafde"/><stop offset="0.84" stop-color="#8490c8"/><stop offset="1" stop-color="#9d85be"/></linearGradient><linearGradient id="linear-gradient-2" x1="500.84" y1="995.67" x2="697.56" y2="995.67" xlink:href="#linear-gradient"/></defs><path class="cls-1" d="M787.4,996.48A10.8,10.8,0,0,1,793,1006a10.71,10.71,0,0,1-5.58,9.5,11.68,11.68,0,0,1-5.77,1.44h-8.74V995h8.81A11.54,11.54,0,0,1,787.4,996.48Zm-1.11,17.34a9,9,0,0,0,0-15.64,9,9,0,0,0-4.59-1.2H775v18h6.71A9,9,0,0,0,786.29,1013.82Z" transform="translate(-500.44 -842.59)"/><path class="cls-1" d="M822.81,995h14.67V997H825v7.84h11.19v1.94H825V1015h12.92V1017H822.81Z" transform="translate(-500.44 -842.59)"/><path class="cls-1" d="M884.16,995h2.13V1017H884l-13.57-18.56V1017h-2.16V995h2.29l13.6,18.56Z" transform="translate(-500.44 -842.59)"/><path class="cls-1" d="M915.2,995h16.64v2H924.6v20h-2.16V997H915.2Z" transform="translate(-500.44 -842.59)"/><path class="cls-1" d="M960.72,995h2.16V1017h-2.16Z" transform="translate(-500.44 -842.59)"/><path class="cls-1" d="M1004.07,997.31a11.1,11.1,0,0,0-3-.45,6.58,6.58,0,0,0-3.62.89,2.77,2.77,0,0,0-1.36,2.43,3.16,3.16,0,0,0,.75,2.19,5.34,5.34,0,0,0,1.85,1.34,30.38,30.38,0,0,0,3,1.08,26.05,26.05,0,0,1,3.59,1.3,6.34,6.34,0,0,1,2.32,1.87,5.62,5.62,0,0,1,0,6.33,6.28,6.28,0,0,1-2.78,2.08,10.71,10.71,0,0,1-4.1.74,11.42,11.42,0,0,1-4.47-.91,12.08,12.08,0,0,1-3.75-2.41l1-1.79a11,11,0,0,0,3.41,2.26,9.91,9.91,0,0,0,3.83.81,6.88,6.88,0,0,0,4-1,3.17,3.17,0,0,0,1.47-2.74,3.37,3.37,0,0,0-.75-2.26,5.12,5.12,0,0,0-1.85-1.35c-.73-.31-1.76-.67-3.07-1.09a33,33,0,0,1-3.58-1.3,6.08,6.08,0,0,1-2.28-1.82,5,5,0,0,1-.94-3.15,4.72,4.72,0,0,1,.94-2.92,5.94,5.94,0,0,1,2.63-1.93,10.73,10.73,0,0,1,3.92-.67,13.16,13.16,0,0,1,6.77,1.94l-.94,1.85A11.7,11.7,0,0,0,1004.07,997.31Z" transform="translate(-500.44 -842.59)"/><path class="cls-1" d="M1035.89,995h16.65v2h-7.24v20h-2.17V997h-7.24Z" transform="translate(-500.44 -842.59)"/><path class="cls-1" d="M1095.86,1017l-4.73-7.14c-.67,0-1.18.06-1.54.06h-6V1017h-2.16V995h8.18a9.52,9.52,0,0,1,6.35,1.9,6.65,6.65,0,0,1,2.24,5.37,7.6,7.6,0,0,1-1.31,4.55,6.91,6.91,0,0,1-3.77,2.54l5.27,7.55Zm-6.27-9a7.3,7.3,0,0,0,4.83-1.42,5.09,5.09,0,0,0,1.69-4.13,4.87,4.87,0,0,0-1.69-4,7.47,7.47,0,0,0-4.83-1.38h-6v10.94Z" transform="translate(-500.44 -842.59)"/><path class="cls-1" d="M1144.74,995l-8.44,14.11v7.8h-2.16v-7.8L1125.58,995h2.26l7.4,11.79,7.24-11.79Z" transform="translate(-500.44 -842.59)"/><path class="cls-2" d="M742.8,947.13h4.3c0,12,8.6,18.38,25.34,18.38,16.46,0,25-6.37,25-17.49,0-10.52-6.82-15.26-25.64-16.89-19.71-1.78-27.12-7.26-27.12-19.27,0-13.49,10.23-21.34,27.86-21.34s27.27,7.71,27.27,21.79h-4.3c0-11.56-8-17.79-22.82-17.79-15,0-23.71,6.37-23.71,17,0,9.64,6.52,13.94,24.45,15.57,20.6,1.92,28.31,7.55,28.31,20.6,0,13.93-10.23,21.78-29.2,21.78C753.33,969.51,742.8,961.66,742.8,947.13Z" transform="translate(-500.44 -842.59)"/><path class="cls-2" d="M824.16,936.91c0,19.12,9.05,28.6,26.68,28.6,15.27,0,24.16-7.11,25.2-19.41h4.29c-1.18,15-11.85,23.41-29.34,23.41-20.16,0-31.27-11.26-31.27-32v-15c0-20.75,10.82-32,30.68-32s30.53,11.26,30.53,32v7.71H824.16Zm0-13.78v3.11h52.32v-3.11c0-19.12-8.6-28.61-26.23-28.61S824.16,904,824.16,923.13Z" transform="translate(-500.44 -842.59)"/><path class="cls-2" d="M938.28,891v4H934c-13.19,0-21,7.41-24.9,25v47.72h-4.44V892.3h3.85l.3,16.75c4.59-12.31,12.74-18.09,24.75-18.09Z" transform="translate(-500.44 -842.59)"/><path class="cls-2" d="M953.84,936.91c0,19.12,9,28.6,26.67,28.6,15.27,0,24.16-7.11,25.2-19.41h4.3c-1.19,15-11.86,23.41-29.35,23.41-20.15,0-31.27-11.26-31.27-32v-15c0-20.75,10.82-32,30.68-32,19.71,0,30.53,11.26,30.53,32v7.71H953.84Zm0-13.78v3.11h52.32v-3.11c0-19.12-8.6-28.61-26.24-28.61C962.44,894.52,953.84,904,953.84,923.13Z" transform="translate(-500.44 -842.59)"/><path class="cls-2" d="M1090.63,917.49v50.24h-4.45V918.09c0-15.57-6.07-23.57-19.41-23.57-12,0-21.49,6.52-28,22.38v50.83h-4.45V892.3h3.85l.3,17.34c6.22-12.6,16-19.12,28.75-19.12C1082.62,890.52,1090.63,900,1090.63,917.49Z" transform="translate(-500.44 -842.59)"/><path class="cls-2" d="M1174.8,930.13v-7.6c0-20.75-10.82-32-30.53-32s-30.67,11.26-30.67,32v7.6Zm-56.76-7c0-19.12,8.6-28.61,26.08-28.61,17.64,0,26.24,9.49,26.24,28.61v3.11H1118Z" transform="translate(-500.44 -842.59)"/><path class="cls-3" d="M1144.72,965.51c-14.54,0-23.22-6.46-25.83-19.44h-4.54c2.77,15.24,13.35,23.44,30.51,23.44,17.49,0,28.16-8.44,29.35-23.41h-4.3C1168.88,958.4,1160,965.51,1144.72,965.51Z" transform="translate(-500.44 -842.59)"/><path class="cls-4" d="M510,924a91.62,91.62,0,0,1,174.61-14.48,77.59,77.59,0,0,0-47.38-11.06c-11.07,1-21.57,4.38-31.72,7.64-10.41,3.34-21.17,6.79-32,8.44-10.28,1.58-19.15,3-28.81-.22l-4.6-2-3.66,8.5,4.89,2.1.27.1c11.84,4,21.79,2.42,33.32.66s22.65-5.34,33.41-8.79c9.67-3.1,19.67-6.3,29.73-7.23a68.23,68.23,0,0,1,42.34,10.13,88.26,88.26,0,0,1,7.52,5.64,5.66,5.66,0,0,0,9.05-5.84A100.85,100.85,0,0,0,501,922l-.51,2.33,9,2Z" transform="translate(-500.44 -842.59)"/><path class="cls-5" d="M688.53,953.82l-.51,2.33a91.62,91.62,0,0,1-174.61,14.48,77.57,77.57,0,0,0,47.38,11.06c11.07-1,21.57-4.39,31.72-7.64,10.4-3.34,21.16-6.79,32-8.45,10.27-1.57,19.15-2.94,28.8.23l4.6,2,3.66-8.49-4.87-2.1-.28-.1c-11.84-4-21.79-2.43-33.32-.66s-22.64,5.33-33.41,8.78c-9.68,3.1-19.68,6.31-29.74,7.24a68.22,68.22,0,0,1-42.34-10.14,88.28,88.28,0,0,1-7.52-5.63,5.66,5.66,0,0,0-9.05,5.84,100.86,100.86,0,0,0,196-4.44l.5-2.33Z" transform="translate(-500.44 -842.59)"/></svg>